<svg width="150" height="48" viewBox="0 0 150 48" fill="none" xmlns="http://www.w3.org/2000/svg">
<path d="M2 22.214C2 17.2074 5.83271 13.6581 11.0528 13.6581C14.0863 13.6581 16.5318 14.7629 18.1306 16.7608L15.1677 19.4405C14.1333 18.1948 12.8636 17.513 11.2879 17.513C8.58381 17.513 6.70271 19.3934 6.70271 22.214C6.70271 25.0346 8.58381 26.915 11.2879 26.915C12.8634 26.915 14.1331 26.2333 15.1677 24.9875L18.1306 27.6672C16.5318 29.6651 14.0863 30.7698 11.0528 30.7698C5.83271 30.7698 2 27.2205 2 22.214Z" fill="#334155"/>
<path d="M18.7875 24.0472C18.7875 20.216 21.8207 17.4895 25.9827 17.4895C30.1917 17.4895 33.1781 20.216 33.1781 24.0472C33.1781 27.902 30.1918 30.6521 25.9827 30.6521C21.8208 30.6521 18.7875 27.902 18.7875 24.0472ZM28.6634 24.0472C28.6634 22.1199 27.5112 21.0385 25.9827 21.0385C24.4778 21.0385 23.3022 22.1198 23.3022 24.0472C23.3022 25.9981 24.4778 27.1029 25.9827 27.1029C27.5113 27.1029 28.6634 25.9981 28.6634 24.0472Z" fill="#334155"/>
<path d="M48.8133 23.1542V30.4406H44.3456V23.8827C44.3456 22.0494 43.5461 21.2736 42.2528 21.2736C40.8185 21.2736 39.7134 22.1669 39.7134 24.2823V30.4406H35.2457V17.701H39.5016V19.0878C40.5128 18.03 41.9471 17.4895 43.5461 17.4895C46.5325 17.4895 48.8133 19.2053 48.8133 23.1542Z" fill="#334155"/>
<path d="M50.599 29.336L51.9393 26.2803C53.1152 27.0091 54.8314 27.4555 56.3836 27.4555C57.8885 27.4555 58.3822 27.1265 58.3822 26.5858C58.3822 24.87 50.8576 26.8209 50.8576 21.7203C50.8576 19.3228 53.0679 17.4895 57.0653 17.4895C58.8525 17.4895 60.8278 17.8655 62.0974 18.5706L60.7571 21.6028C59.4875 20.8977 58.2177 20.6626 57.0891 20.6626C55.5842 20.6626 55.0434 21.0855 55.0434 21.5558C55.0434 23.3186 62.5443 21.4147 62.5443 26.4683C62.5443 28.8188 60.3812 30.6521 56.2425 30.6521C54.0793 30.6521 51.8453 30.1116 50.599 29.336Z" fill="#334155"/>
<path d="M77.8743 17.701V30.4407H73.6182V29.0774C72.6542 30.1352 71.2905 30.6521 69.8324 30.6521C66.7053 30.6521 64.4242 28.8658 64.4242 24.823V17.701H68.8921V24.0943C68.8921 26.0688 69.668 26.8444 71.0083 26.8444C72.325 26.8444 73.4068 25.9747 73.4068 23.8357V17.701H77.8743Z" fill="#334155"/>
<path d="M80.7415 13H85.209V30.4407H80.7415V13Z" fill="#334155"/>
<path d="M98.1638 29.9236C97.3879 30.4172 96.2357 30.6522 95.0602 30.6522C91.7915 30.6522 89.887 29.0538 89.887 25.7867V21.5089H88.0294V18.1711H89.887V14.8569H94.3545V18.1711H97.2705V21.5089H94.3545V25.7397C94.3545 26.6799 94.8954 27.197 95.6948 27.197C96.1888 27.197 96.6824 27.0559 97.0587 26.7974L98.1638 29.9236Z" fill="#334155"/>
<path d="M111.825 23.3656V30.4406H107.663V28.7953C107.028 30.0177 105.758 30.6522 103.9 30.6522C100.843 30.6522 99.1505 28.9364 99.1505 26.7269C99.1505 24.3764 100.867 22.9191 104.817 22.9191H107.357C107.286 21.6262 106.416 20.8977 104.653 20.8977C103.43 20.8977 102.066 21.3206 101.196 22.0024L99.6913 18.9702C101.149 18.0066 103.312 17.4895 105.311 17.4895C109.45 17.4895 111.825 19.3228 111.825 23.3656ZM107.357 26.3507V25.246H105.429C103.994 25.246 103.477 25.7631 103.477 26.5388C103.477 27.291 104.088 27.8317 105.146 27.8317C106.134 27.8317 107.004 27.3616 107.357 26.3507Z" fill="#334155"/>
<path d="M114.762 30.1234C114.448 29.8178 114.292 29.4301 114.292 28.9601C114.292 28.5058 114.448 28.1259 114.762 27.8203C115.076 27.5147 115.452 27.3619 115.891 27.3619C116.329 27.3619 116.698 27.511 116.996 27.8085C117.293 28.1062 117.442 28.49 117.442 28.9601C117.442 29.4302 117.29 29.818 116.984 30.1234C116.678 30.429 116.314 30.5818 115.891 30.5818C115.452 30.5818 115.076 30.4289 114.762 30.1234Z" fill="#334155"/>
<path d="M130.538 18.6658C131.494 19.1986 132.243 19.943 132.784 20.8985C133.324 21.8543 133.595 22.959 133.595 24.2123C133.595 25.4661 133.324 26.5742 132.784 27.5379C132.243 28.5016 131.494 29.2499 130.538 29.7824C129.582 30.3152 128.5 30.5815 127.294 30.5815C126.4 30.5815 125.581 30.4092 124.836 30.0645C124.092 29.7201 123.461 29.2183 122.944 28.5604V35H120.687V17.9841H122.85V19.9584C123.351 19.269 123.986 18.748 124.754 18.3954C125.522 18.0428 126.368 17.8665 127.294 17.8665C128.5 17.8666 129.582 18.1333 130.538 18.6658ZM129.257 28.0551C129.892 27.6872 130.393 27.1701 130.762 26.5039C131.13 25.8381 131.314 25.0743 131.314 24.2123C131.314 23.3508 131.13 22.5869 130.762 21.9207C130.393 21.2549 129.892 20.7418 129.257 20.3813C128.622 20.0211 127.905 19.8406 127.105 19.8406C126.322 19.8406 125.612 20.0251 124.978 20.3931C124.343 20.7612 123.841 21.2743 123.473 21.9325C123.105 22.5906 122.92 23.3508 122.92 24.2123C122.92 25.0742 123.1 25.8381 123.461 26.5039C123.821 27.1701 124.323 27.6872 124.966 28.0551C125.609 28.4235 126.322 28.6074 127.105 28.6074C127.905 28.6074 128.622 28.4235 129.257 28.0551Z" fill="#334155"/>
<path d="M147.937 24.9646H137.827C137.968 26.0615 138.45 26.9427 139.273 27.6086C140.096 28.2748 141.118 28.6074 142.341 28.6074C143.83 28.6074 145.029 28.1061 145.939 27.1032L147.185 28.5606C146.62 29.2185 145.919 29.7203 145.08 30.0647C144.242 30.4095 143.305 30.5818 142.271 30.5818C140.954 30.5818 139.786 30.3115 138.767 29.7709C137.748 29.2302 136.961 28.4744 136.404 27.5028C135.848 26.5315 135.57 25.4347 135.57 24.2124C135.57 23.0062 135.84 21.9172 136.381 20.9456C136.922 19.9742 137.666 19.2181 138.614 18.6775C139.563 18.137 140.632 17.8666 141.824 17.8666C143.015 17.8666 144.077 18.1369 145.01 18.6775C145.942 19.2182 146.671 19.9743 147.196 20.9456C147.721 21.9172 147.984 23.0295 147.984 24.283C147.984 24.4554 147.968 24.6825 147.937 24.9646ZM139.108 20.7575C138.379 21.4155 137.952 22.2774 137.827 23.3427H145.821C145.695 22.2932 145.268 21.4353 144.54 20.7693C143.811 20.1035 142.906 19.7704 141.824 19.7704C140.742 19.7703 139.837 20.0993 139.108 20.7575Z" fill="#334155"/>
</svg>
