<svg width="150" height="48" viewBox="0 0 150 48" fill="none" xmlns="http://www.w3.org/2000/svg">
<path d="M14.9305 32.0107C8.7016 32.0107 4 27.1594 4 21.1701C4 15.1508 8.7016 10.2695 14.9305 10.2695C18.4941 10.2695 20.8898 11.4374 22.6267 13.5636L19.6321 16.139C18.4941 14.9112 16.877 14.1626 14.9305 14.1626C10.8877 14.1626 8.34225 17.3369 8.34225 21.1701C8.34225 25.0032 10.8877 28.1775 14.9305 28.1775C18.2545 28.1775 20.3508 26.6203 20.8299 23.3561L13.9422 23.416V19.6428H24.8727C24.9626 20.2717 25.0225 21.3198 25.0225 21.9786C25.0225 27.7882 21.2192 32.0107 14.9305 32.0107Z" fill="#334155"/>
<path d="M33.3233 32.0107C28.5019 32.0107 25.2676 28.3572 25.2676 23.8652C25.2676 19.3733 28.6516 15.6599 33.3233 15.6599C37.9949 15.6599 41.2291 19.3733 41.2291 23.8652C41.2291 24.3144 41.1992 24.7936 41.1094 25.3027H29.4602C29.9094 27.1294 31.2869 28.4171 33.3233 28.4171C35.0602 28.4171 36.4078 27.5187 37.1265 26.3209L40.2709 28.6866C39.0131 30.6332 36.4078 32.0107 33.3233 32.0107ZM29.4602 22.2781H37.1564C36.7072 20.5412 35.2398 19.1337 33.2634 19.1337C31.3468 19.1337 29.9094 20.4214 29.4602 22.2781Z" fill="#334155"/>
<path d="M42.1954 31.6214V16.0492H46.1783V18.3251C46.9868 16.5882 48.544 15.6898 50.9398 15.6898C54.2938 15.6898 56.8692 18.1754 56.8692 22.0984V31.6214H52.8264V23.0866C52.8264 20.3914 51.4788 19.2235 49.4724 19.2235C47.7654 19.2235 46.2382 20.3914 46.2382 23.0866V31.6214H42.1954Z" fill="#334155"/>
<path d="M58.3195 31.6214V16.0492H62.3623V31.6214H58.3195ZM57.9002 12.3658C57.9002 11.0781 58.9484 10 60.3259 10C61.7334 10 62.7516 11.0781 62.7516 12.3658C62.7516 13.7134 61.7334 14.7615 60.3259 14.7615C58.9484 14.7615 57.9002 13.6834 57.9002 12.3658Z" fill="#334155"/>
<path d="M63.9447 31.6214V16.0492H67.9276V18.3251C68.7362 16.5882 70.2934 15.6898 72.6891 15.6898C74.8752 15.6898 76.7319 16.738 77.7501 18.6246C78.7982 16.738 80.2955 15.6898 83.0207 15.6898C86.3747 15.6898 88.9501 18.1754 88.9501 22.0984V31.6214H84.9073V23.0866C84.9073 20.3914 83.6196 19.2235 81.7929 19.2235C79.9062 19.2235 78.6185 20.092 78.6185 23.0866V31.6214H74.5758V23.0866C74.5758 20.3914 73.2282 19.2235 71.2218 19.2235C69.5148 19.2235 67.9875 20.3914 67.9875 23.0866V31.6214H63.9447Z" fill="#334155"/>
<path d="M97.4895 32.0107C93.2072 32.0107 89.7933 28.3872 89.7933 23.8952C89.7933 19.4032 93.2072 15.7198 97.4895 15.7198C100.185 15.7198 101.592 16.8278 102.431 18.5048V16.0492H106.444V31.6214H102.521V29.0759C101.682 30.8428 100.275 32.0107 97.4895 32.0107ZM93.8361 23.8652C93.8361 26.231 95.573 28.3572 98.1484 28.3572C100.814 28.3572 102.521 26.3209 102.521 23.8952C102.521 21.4695 100.814 19.3733 98.1484 19.3733C95.573 19.3733 93.8361 21.4396 93.8361 23.8652Z" fill="#334155"/>
<path d="M115.613 38C112.469 38 110.013 37.2513 108.157 35.0652L110.672 32.1005C112.14 33.7775 113.697 34.2567 115.643 34.2567C117.8 34.2567 119.686 32.4898 119.686 30.0043V29.3155C118.848 30.7529 117.5 31.7112 114.985 31.7112C110.702 31.7112 107.438 28.1775 107.438 23.6856C107.438 19.1936 110.702 15.6599 114.985 15.6599C117.56 15.6599 118.938 16.6481 119.746 18.1754V16.0492H123.729V30.2438C123.729 35.0353 120.375 38 115.613 38ZM111.481 23.6856C111.481 26.0513 113.008 28.0278 115.643 28.0278C118.309 28.0278 119.866 26.1112 119.866 23.6856C119.866 21.2599 118.309 19.3433 115.643 19.3433C113.008 19.3433 111.481 21.2599 111.481 23.6856Z" fill="#334155"/>
<path d="M125.302 31.6214V16.0492H129.344V31.6214H125.302ZM124.882 12.3658C124.882 11.0781 125.931 10 127.308 10C128.716 10 129.734 11.0781 129.734 12.3658C129.734 13.7134 128.716 14.7615 127.308 14.7615C125.931 14.7615 124.882 13.6834 124.882 12.3658Z" fill="#334155"/>
<path d="M129.43 31.6214L135.269 23.8353L129.729 16.0492H134.55L137.725 20.9904L141.019 16.0492H145.75L140.21 23.8952L146.05 31.6214H141.139L137.755 26.6503L134.251 31.6214H129.43Z" fill="#334155"/>
</svg>
