<svg width="150" height="48" viewBox="0 0 150 48" fill="none" xmlns="http://www.w3.org/2000/svg">
<path d="M9.504 35.968L4 19.168H8.672L10.752 25.952L12.32 32.032H12.576L14.144 25.952L16.16 19.168H20.64L15.136 35.968H9.504Z" fill="#334155"/>
<path d="M29.0328 36.352C27.7528 36.352 26.6114 36.1493 25.6087 35.744C24.6061 35.3173 23.7527 34.7307 23.0487 33.984C22.3661 33.216 21.8434 32.288 21.4807 31.2C21.1394 30.112 20.9688 28.896 20.9688 27.552C20.9688 26.2293 21.1394 25.0347 21.4807 23.968C21.8221 22.88 22.3234 21.952 22.9848 21.184C23.6674 20.416 24.4994 19.8293 25.4807 19.424C26.4621 18.9973 27.5821 18.784 28.8407 18.784C30.2274 18.784 31.4114 19.0187 32.3927 19.488C33.3954 19.9573 34.2061 20.5867 34.8248 21.376C35.4648 22.1653 35.9234 23.0827 36.2008 24.128C36.4994 25.152 36.6488 26.2293 36.6488 27.36V28.768H25.8647V29.024C25.8647 30.1333 26.1634 31.0187 26.7607 31.68C27.3581 32.32 28.2967 32.64 29.5767 32.64C30.5581 32.64 31.3581 32.448 31.9768 32.064C32.5954 31.6587 33.1714 31.1787 33.7048 30.624L36.0728 33.568C35.3261 34.4427 34.3448 35.1253 33.1287 35.616C31.9341 36.1067 30.5688 36.352 29.0328 36.352ZM28.9368 22.272C27.9768 22.272 27.2194 22.592 26.6648 23.232C26.1314 23.8507 25.8647 24.6827 25.8647 25.728V25.984H31.7528V25.696C31.7528 24.672 31.5181 23.8507 31.0487 23.232C30.6007 22.592 29.8968 22.272 28.9368 22.272Z" fill="#334155"/>
<path d="M39.1295 35.968V19.168H43.8655V22.816H44.0255C44.1108 22.3467 44.2602 21.8987 44.4735 21.472C44.6868 21.024 44.9642 20.6293 45.3055 20.288C45.6682 19.9467 46.0948 19.68 46.5855 19.488C47.0762 19.2747 47.6522 19.168 48.3135 19.168H49.1455V23.584H47.9615C46.5748 23.584 45.5402 23.7653 44.8575 24.128C44.1962 24.4907 43.8655 25.1627 43.8655 26.144V35.968H39.1295Z" fill="#334155"/>
<path d="M53.571 17.376C52.611 17.376 51.907 17.1627 51.459 16.736C51.0323 16.288 50.819 15.7227 50.819 15.04V14.336C50.819 13.6533 51.0323 13.0987 51.459 12.672C51.907 12.224 52.611 12 53.571 12C54.531 12 55.2243 12.224 55.651 12.672C56.099 13.0987 56.323 13.6533 56.323 14.336V15.04C56.323 15.7227 56.099 16.288 55.651 16.736C55.2243 17.1627 54.531 17.376 53.571 17.376ZM51.203 19.168H55.939V35.968H51.203V19.168Z" fill="#334155"/>
<path d="M60.3272 22.848H57.9592V19.168H60.3272V17.184C60.3272 15.5627 60.7539 14.3467 61.6073 13.536C62.4606 12.704 63.7086 12.288 65.3512 12.288H68.4232V15.968H65.0632V19.168H75.7832V35.968H71.0472V22.848H65.0632V35.968H60.3272V22.848ZM73.4153 17.376C72.4553 17.376 71.7513 17.1627 71.3033 16.736C70.8766 16.288 70.6632 15.7227 70.6632 15.04V14.336C70.6632 13.6533 70.8766 13.0987 71.3033 12.672C71.7513 12.224 72.4553 12 73.4153 12C74.3753 12 75.0686 12.224 75.4952 12.672C75.9432 13.0987 76.1673 13.6533 76.1673 14.336V15.04C76.1673 15.7227 75.9432 16.288 75.4952 16.736C75.0686 17.1627 74.3753 17.376 73.4153 17.376Z" fill="#334155"/>
<path d="M86.134 36.352C84.8753 36.352 83.7553 36.1493 82.774 35.744C81.7927 35.3173 80.9713 34.7307 80.31 33.984C79.6487 33.216 79.1473 32.288 78.806 31.2C78.4647 30.112 78.294 28.896 78.294 27.552C78.294 26.208 78.4647 25.0027 78.806 23.936C79.1473 22.848 79.6487 21.92 80.31 21.152C80.9713 20.384 81.7927 19.7973 82.774 19.392C83.7553 18.9867 84.8753 18.784 86.134 18.784C87.8407 18.784 89.2593 19.168 90.39 19.936C91.542 20.704 92.3633 21.7813 92.854 23.168L89.014 24.832C88.8647 24.192 88.5553 23.648 88.086 23.2C87.6167 22.752 86.966 22.528 86.134 22.528C85.174 22.528 84.4487 22.848 83.958 23.488C83.4673 24.1067 83.222 24.9493 83.222 26.016V29.152C83.222 30.2187 83.4673 31.0613 83.958 31.68C84.4487 32.2987 85.174 32.608 86.134 32.608C86.9873 32.608 87.6593 32.384 88.15 31.936C88.662 31.4667 89.0353 30.8587 89.27 30.112L92.95 31.712C92.3953 33.312 91.5313 34.4853 90.358 35.232C89.206 35.9787 87.798 36.352 86.134 36.352Z" fill="#334155"/>
<path d="M107.433 35.968C106.58 35.968 105.865 35.7013 105.289 35.168C104.735 34.6347 104.383 33.92 104.233 33.024H104.041C103.785 34.112 103.22 34.944 102.345 35.52C101.471 36.0747 100.393 36.352 99.1133 36.352C97.4279 36.352 96.1372 35.904 95.2412 35.008C94.3452 34.112 93.8973 32.928 93.8973 31.456C93.8973 29.6853 94.5373 28.3733 95.8173 27.52C97.1186 26.6453 98.8786 26.208 101.097 26.208H103.753V25.152C103.753 24.3413 103.54 23.7013 103.113 23.232C102.687 22.7413 101.972 22.496 100.969 22.496C100.031 22.496 99.2839 22.6987 98.7293 23.104C98.1746 23.5093 97.7159 23.968 97.3532 24.48L94.5373 21.984C95.2199 20.9813 96.0733 20.2027 97.0973 19.648C98.1426 19.072 99.5506 18.784 101.321 18.784C103.711 18.784 105.503 19.3067 106.697 20.352C107.892 21.3973 108.489 22.9227 108.489 24.928V32.288H110.057V35.968H107.433ZM100.873 33.056C101.663 33.056 102.335 32.8853 102.889 32.544C103.465 32.2027 103.753 31.648 103.753 30.88V28.896H101.449C99.5932 28.896 98.6653 29.5253 98.6653 30.784V31.264C98.6653 31.8827 98.8572 32.3413 99.2412 32.64C99.6252 32.9173 100.169 33.056 100.873 33.056Z" fill="#334155"/>
<path d="M115.437 36.32C114.477 36.32 113.762 36.0853 113.293 35.616C112.845 35.1253 112.621 34.5067 112.621 33.76V33.12C112.621 32.3733 112.845 31.7653 113.293 31.296C113.762 30.8053 114.477 30.56 115.437 30.56C116.397 30.56 117.101 30.8053 117.549 31.296C118.018 31.7653 118.253 32.3733 118.253 33.12V33.76C118.253 34.5067 118.018 35.1253 117.549 35.616C117.101 36.0853 116.397 36.32 115.437 36.32Z" fill="#334155"/>
<path d="M124.095 17.376C123.135 17.376 122.431 17.1627 121.983 16.736C121.556 16.288 121.343 15.7227 121.343 15.04V14.336C121.343 13.6533 121.556 13.0987 121.983 12.672C122.431 12.224 123.135 12 124.095 12C125.055 12 125.748 12.224 126.175 12.672C126.623 13.0987 126.847 13.6533 126.847 14.336V15.04C126.847 15.7227 126.623 16.288 126.175 16.736C125.748 17.1627 125.055 17.376 124.095 17.376ZM121.727 19.168H126.463V35.968H121.727V19.168Z" fill="#334155"/>
<path d="M140.323 33.152H140.163C140.035 33.6 139.832 34.0267 139.555 34.432C139.278 34.816 138.936 35.1573 138.531 35.456C138.147 35.7333 137.699 35.9467 137.187 36.096C136.696 36.2667 136.184 36.352 135.651 36.352C133.518 36.352 131.907 35.6053 130.819 34.112C129.731 32.5973 129.187 30.4107 129.187 27.552C129.187 24.6933 129.731 22.5173 130.819 21.024C131.907 19.5307 133.518 18.784 135.651 18.784C136.739 18.784 137.699 19.0827 138.531 19.68C139.384 20.2773 139.928 21.0453 140.163 21.984H140.323V12.288H145.059V35.968H140.323V33.152ZM137.219 32.512C138.115 32.512 138.851 32.2987 139.427 31.872C140.024 31.424 140.323 30.816 140.323 30.048V25.088C140.323 24.32 140.024 23.7227 139.427 23.296C138.851 22.848 138.115 22.624 137.219 22.624C136.323 22.624 135.576 22.944 134.979 23.584C134.403 24.2027 134.115 25.0453 134.115 26.112V29.024C134.115 30.0907 134.403 30.944 134.979 31.584C135.576 32.2027 136.323 32.512 137.219 32.512Z" fill="#334155"/>
</svg>
